<svg xmlns="http://www.w3.org/2000/svg" width="889.611" height="850.94" viewBox="0 0 889.611 850.94">
  <g id="Ilustraci칩n_1" data-name="Ilustraci칩n 1" transform="translate(-179.987 -38.967)">
    <path id="Trazado_4030" data-name="Trazado 4030" d="M575.176,576.828,273.723,402.785a10.161,10.161,0,0,1,0-17.6L560.355,219.718l320.7,185.156a10.162,10.162,0,0,1,0,17.6L613.671,576.831A38.5,38.5,0,0,1,575.176,576.828Z" transform="translate(118.04 240.664)" fill="#173d7a" opacity="0.5"/>
    <g id="Grupo_1747" data-name="Grupo 1747" transform="translate(364.163 346.304)">
      <g id="Grupo_1743" data-name="Grupo 1743" transform="translate(0 0)">
        <path id="Trazado_4031" data-name="Trazado 4031" d="M579.282,192.254c.016-19.141-13.464-26.94-30.05-17.383L267.294,337.31c-4.56,2.625-8.263,9.025-8.267,14.287s3.691,7.4,8.251,4.772L549.215,193.93c7.482-4.311,13.56-.795,13.553,7.838l-.03,31.531c5.472-.34,10.963-.345,16.507-.25Z" transform="translate(-258.924 -170.788)" fill="#11b3c9"/>
        <path id="Trazado_4032" data-name="Trazado 4032" d="M267.232,377.538,549.169,274.8c16.586-9.557,30.095-32.9,30.113-52.048l.021-25.231c-5.544-.1-11.035-.091-16.507.249l-.03,34.5c-.007,8.636-6.1,19.162-13.581,23.473L267.248,358.481c-4.558,2.625-8.26,9.025-8.265,14.287S262.671,380.166,267.232,377.538Z" transform="translate(-258.983 -135.262)" fill="#11b3c9"/>
      </g>
      <path id="Trazado_4033" data-name="Trazado 4033" d="M259.9,291.319,602.864,489.773,893.236,316.6l23.037-34.382L913.882,294.4l-6.19-31.893L368.686,283.069l-94.966-6.117Z" transform="translate(-257.765 -48.663)" fill="#11b3c9"/>
      <path id="Trazado_4034" data-name="Trazado 4034" d="M264.83,249.18l-.093,42.217L596.21,483.169l8.956-40.236Z" transform="translate(-251.322 -66.413)" fill="#159faa"/>
      <path id="Trazado_4035" data-name="Trazado 4035" d="M911.819,369.824,569.4,171.718,260.672,351.253l-.637,4.409,342.924,198.4Z" transform="translate(-257.583 -169.55)" fill="#08c9f1"/>
      <g id="Grupo_1744" data-name="Grupo 1744" transform="translate(344.77 216.099)">
        <path id="Trazado_4036" data-name="Trazado 4036" d="M607.163,349.386l80.51-47.758c6.782-4.768,12.1-14.4,12.107-22.452l.061-6.325c0-5.115-2.138-8.414-5.432-9.375L535.923,351.645l-129.063,69.8.119,42.687Z" transform="translate(-406.86 -263.476)" fill="#fff"/>
      </g>
      <path id="Trazado_4037" data-name="Trazado 4037" d="M615.268,449.881,275.021,253.033l-7.211-4.173-6.589-3.812a16.616,16.616,0,0,0-2.194,7.675c0,2.586.9,4.406,2.345,5.288l0,.016.054.03.026.014L604.3,456.423Z" transform="translate(-258.924 -71.914)" fill="#11b3c9"/>
      <path id="Trazado_4038" data-name="Trazado 4038" d="M405.167,359.488l4.277,2.474.789-1.363-2.664-2.1Z" transform="translate(-64.344 79.148)" fill="#fff"/>
      <path id="Trazado_4039" data-name="Trazado 4039" d="M405.215,334.6l4.382,2.535-1.1-2.393Z" transform="translate(-64.281 47.328)" fill="#fff"/>
      <g id="Grupo_1745" data-name="Grupo 1745" transform="translate(342.921 198.396)">
        <path id="Trazado_4040" data-name="Trazado 4040" d="M414.437,422.4,696.374,259.965c16.586-9.557,30.067-1.758,30.05,17.383l-.058,6.325c-.019,19.141-13.527,42.491-30.113,52.045L414.316,498.159c-4.56,2.628-8.253.492-8.249-4.77s3.707-11.662,8.265-14.29l281.939-162.44c7.479-4.309,13.572-14.837,13.578-23.471l.061-6.325c.007-8.633-6.071-12.149-13.553-7.841L414.421,441.463c-4.56,2.628-8.253.492-8.249-4.77S409.877,425.031,414.437,422.4Z" transform="translate(-406.067 -255.883)" fill="#08c9f1"/>
      </g>
      <g id="Grupo_1746" data-name="Grupo 1746" transform="translate(338.403 195.79)">
        <path id="Trazado_4041" data-name="Trazado 4041" d="M408.647,481.177c0-5.262,3.707-11.662,8.265-14.29L698.852,304.45c7.479-4.311,13.571-14.84,13.578-23.473l.061-6.325c0-5.651-2.609-9.093-6.507-9.6a11.35,11.35,0,0,1,1.989,6.983l-.058,6.325c-.009,8.633-6.1,19.162-13.581,23.473L412.4,464.274c-4.56,2.628-8.263,9.027-8.267,14.29,0,3.987,2.122,6.169,5.134,5.852A7.924,7.924,0,0,1,408.647,481.177Z" transform="translate(-404.129 -241.065)" fill="#fff"/>
        <path id="Trazado_4042" data-name="Trazado 4042" d="M408.692,438.181c0-5.262,3.7-11.662,8.265-14.287l281.937-162.44c7.144-4.117,13.7-5,18.864-3.154-5.512-4.7-13.937-4.9-23.38.541L412.441,421.28c-4.56,2.625-8.263,9.025-8.267,14.287,0,3.987,2.122,6.169,5.134,5.852A7.888,7.888,0,0,1,408.692,438.181Z" transform="translate(-404.069 -254.765)" fill="#fff"/>
      </g>
    </g>
    <g id="Grupo_1751" data-name="Grupo 1751" transform="translate(405.542 78.035)">
      <path id="Trazado_4043" data-name="Trazado 4043" d="M753.9,233.231,449.71,57.6A12.28,12.28,0,0,0,439.4,56.34l.019-.03-.553.207c-.044.019-.091.033-.135.051L427.74,60.775l9.867,4.831c-.044.182-.1.352-.142.539L387.919,291.683c-2.481,11.287,2.485,24.464,11.091,29.432l296.875,171.4L694.826,505.1l12.014-4.656c4.036-1.888,7.27-6.157,8.605-12.238l49.546-225.539C767.472,251.374,762.506,238.2,753.9,233.231Z" transform="translate(-129.539 -55.724)" fill="#173d7a"/>
      <path id="Trazado_4044" data-name="Trazado 4044" d="M743.889,233.231,439.7,57.6a12.28,12.28,0,0,0-10.307-1.264l.019-.03-.553.207c-.044.019-.091.033-.135.051l-10.993,4.206,9.867,4.831c-.044.182-.1.352-.142.539L394.8,214.786,543.635,330.744,753.5,245.352C751.48,240.125,748.13,235.679,743.889,233.231Z" transform="translate(-119.528 -55.724)" fill="#396caa"/>
      <path id="Trazado_4045" data-name="Trazado 4045" d="M552.677,165.6l23.156-9.86c.424-8.967-3.29-18.232-9.382-23.186L529.8,147.973Z" transform="translate(60.215 46.575)" fill="#274f89"/>
      <path id="Trazado_4046" data-name="Trazado 4046" d="M695.075,501.477,390.885,325.853c-8.606-4.968-13.572-18.146-11.091-29.432L429.34,70.881c2.481-11.287,11.466-16.409,20.072-11.441L753.6,235.065c8.606,4.968,13.571,18.146,11.093,29.432L715.147,490.037C712.666,501.323,703.681,506.445,695.075,501.477Z" transform="translate(-140.358 -53.301)" fill="#d4ecff"/>
      <path id="Trazado_4047" data-name="Trazado 4047" d="M721.572,234.592,417.382,58.97a12.027,12.027,0,0,0-11.977-.522,12.5,12.5,0,0,1,9.055,1.59L718.651,235.66c8.606,4.971,13.571,18.148,11.093,29.435L680.2,490.633c-1.28,5.819-4.3,9.958-8.095,11.96,5.136-1.121,9.422-5.78,11.016-13.031l49.546-225.536C735.144,252.74,730.178,239.56,721.572,234.592Z" transform="translate(-105.407 -53.898)" fill="#fff"/>
      <path id="Trazado_4048" data-name="Trazado 4048" d="M681.339,475.255,395.252,310.164c-7.873-4.546-12.417-16.6-10.149-26.933l45.34-206.388c2.269-10.328,10.492-15.015,18.367-10.468L734.9,231.466c7.876,4.546,12.42,16.6,10.151,26.933l-45.34,206.386C697.436,475.113,689.212,479.8,681.339,475.255Z" transform="translate(-133.215 -43.854)" fill="#fff"/>
      <path id="Trazado_4049" data-name="Trazado 4049" d="M681.339,475.255,395.252,310.164c-7.873-4.546-12.417-16.6-10.149-26.933l45.34-206.388c2.269-10.328,10.492-15.015,18.367-10.468L734.9,231.466c7.876,4.546,12.42,16.6,10.151,26.933l-45.34,206.386C697.436,475.113,689.212,479.8,681.339,475.255Z" transform="translate(-133.215 -43.854)" fill="#173d7a"/>
      <path id="Trazado_4050" data-name="Trazado 4050" d="M683.831,474.055,397.747,308.962c-7.876-4.544-12.42-16.6-10.151-26.931L432.938,75.643c1.147-5.227,3.826-8.992,7.207-10.865-4.535,1.168-8.281,5.418-9.7,11.879L385.1,283.043c-2.269,10.331,2.276,22.389,10.149,26.935L681.339,475.069a11,11,0,0,0,11.156.394A11.407,11.407,0,0,1,683.831,474.055Z" transform="translate(-133.215 -43.668)" fill="#5793ce"/>
      <path id="Trazado_4051" data-name="Trazado 4051" d="M835.641,344.785l-41.579-5.491L525.648,184.327c-8.6-4.968-23.634-4.346-33.571,1.392l-190.2,109.77-25.145-3.32v14.264l.026,0c-.163,3.3,1.714,6.467,5.773,8.813L586.725,490.874c8.605,4.968,23.636,4.344,33.573-1.392L827.43,369.934c5.588-3.227,8.375-7.384,8.211-11.289h0Z" transform="translate(-276.725 111.041)" fill="#173d7a"/>
      <path id="Trazado_4052" data-name="Trazado 4052" d="M633.968,215.521,614.9,204.512H405.239L301.881,264.146l-25.145-3.32V275.09l.026,0c-.163,3.3,1.714,6.467,5.773,8.813L586.725,459.532c4.549,2.625,10.89,3.674,17.328,3.248Z" transform="translate(-276.725 142.383)" fill="#396caa"/>
      <path id="Trazado_4053" data-name="Trazado 4053" d="M287.894,230.139l-11.158-1.473V242.93l.026,0c-.163,3.3,1.714,6.467,5.773,8.813l5.36,3.094Z" transform="translate(-276.725 174.543)" fill="#5793ce"/>
      <path id="Trazado_4054" data-name="Trazado 4054" d="M411.009,333.688c8.155,3.094,19.818,2.42,28.526-1.77V300.1H411.009Z" transform="translate(-97.945 269.65)" fill="#274f89"/>
      <path id="Trazado_4055" data-name="Trazado 4055" d="M586.731,490.13,282.541,314.505c-8.605-4.968-7.526-13.646,2.411-19.384L492.083,175.573c9.937-5.735,24.968-6.358,33.571-1.39L829.847,349.808c8.605,4.968,7.526,13.646-2.411,19.381L620.3,488.738C610.368,494.476,595.337,495.1,586.731,490.13Z" transform="translate(-276.731 97.535)" fill="#d4ecff"/>
      <path id="Trazado_4056" data-name="Trazado 4056" d="M827.426,288.245,620.294,407.794c-9.937,5.738-24.968,6.36-33.573,1.394L282.53,233.561a11.306,11.306,0,0,1-5.348-5.852c-1.347,4.071.368,8.186,5.348,11.063L586.721,414.4c8.605,4.968,23.636,4.346,33.573-1.392L827.426,293.456c6.677-3.854,9.335-9.037,7.759-13.532C834.206,282.89,831.611,285.83,827.426,288.245Z" transform="translate(-276.721 173.269)" fill="#fff"/>
      <g id="Grupo_1748" data-name="Grupo 1748" transform="translate(120.677 279.18)">
        <path id="Trazado_4057" data-name="Trazado 4057" d="M343,219.18l-13.765-7.946c-1.105-.639-.965-1.753.31-2.49l16.246-9.379a4.8,4.8,0,0,1,4.311-.18l13.765,7.948c1.105.636.965,1.751-.31,2.488L347.313,219A4.8,4.8,0,0,1,343,219.18Z" transform="translate(-328.491 -144.461)" fill="#5793ce"/>
        <path id="Trazado_4058" data-name="Trazado 4058" d="M352.117,224.443,338.354,216.5c-1.105-.639-.968-1.753.31-2.49l16.246-9.379a4.788,4.788,0,0,1,4.311-.177l13.763,7.946c1.105.639.968,1.753-.31,2.49l-16.246,9.379A4.788,4.788,0,0,1,352.117,224.443Z" transform="translate(-316.353 -137.453)" fill="#5793ce"/>
        <path id="Trazado_4059" data-name="Trazado 4059" d="M361.235,229.707l-13.765-7.948c-1.105-.637-.965-1.751.31-2.488l16.246-9.379a4.8,4.8,0,0,1,4.311-.18L382.1,217.66c1.105.636.965,1.751-.31,2.488l-16.246,9.379A4.8,4.8,0,0,1,361.235,229.707Z" transform="translate(-304.215 -130.445)" fill="#5793ce"/>
        <path id="Trazado_4060" data-name="Trazado 4060" d="M373.841,224.5l-13.763-7.946c-1.105-.639-.965-1.753.31-2.49l13.637-7.873a4.8,4.8,0,0,1,4.311-.18l13.765,7.948c1.105.637.965,1.751-.31,2.488l-13.637,7.873A4.794,4.794,0,0,1,373.841,224.5Z" transform="translate(-287.426 -135.372)" fill="#5793ce"/>
        <path id="Trazado_4061" data-name="Trazado 4061" d="M382.959,229.763,369.2,221.817c-1.105-.637-.968-1.751.308-2.488l13.639-7.876a4.788,4.788,0,0,1,4.311-.177l13.763,7.946c1.105.639.968,1.753-.31,2.49l-13.637,7.873A4.788,4.788,0,0,1,382.959,229.763Z" transform="translate(-275.288 -128.365)" fill="#5793ce"/>
        <path id="Trazado_4062" data-name="Trazado 4062" d="M392.074,235.027l-13.763-7.946c-1.105-.639-.965-1.753.31-2.49l13.637-7.873a4.8,4.8,0,0,1,4.311-.18l13.765,7.948c1.105.637.965,1.751-.31,2.488l-13.637,7.873A4.794,4.794,0,0,1,392.074,235.027Z" transform="translate(-263.15 -121.356)" fill="#5793ce"/>
        <path id="Trazado_4063" data-name="Trazado 4063" d="M401.192,240.29l-13.763-7.946c-1.105-.639-.968-1.753.308-2.49l13.639-7.873a4.788,4.788,0,0,1,4.311-.177l13.763,7.946c1.105.639.968,1.753-.31,2.49L405.5,240.113A4.788,4.788,0,0,1,401.192,240.29Z" transform="translate(-251.011 -114.348)" fill="#5793ce"/>
        <path id="Trazado_4064" data-name="Trazado 4064" d="M410.31,245.554l-13.765-7.948c-1.105-.637-.965-1.751.31-2.488l13.637-7.873a4.789,4.789,0,0,1,4.311-.18l13.765,7.946c1.105.639.965,1.753-.31,2.49l-13.637,7.873A4.8,4.8,0,0,1,410.31,245.554Z" transform="translate(-238.873 -107.34)" fill="#5793ce"/>
        <path id="Trazado_4065" data-name="Trazado 4065" d="M419.425,250.817l-13.763-7.946c-1.105-.639-.967-1.753.308-2.49l13.639-7.873a4.788,4.788,0,0,1,4.311-.177l13.763,7.946c1.105.636.967,1.753-.308,2.488l-13.639,7.873A4.789,4.789,0,0,1,419.425,250.817Z" transform="translate(-226.735 -100.332)" fill="#5793ce"/>
        <path id="Trazado_4066" data-name="Trazado 4066" d="M428.543,256.081l-13.765-7.948c-1.105-.636-.965-1.751.31-2.488l13.637-7.873a4.789,4.789,0,0,1,4.311-.179l13.765,7.946c1.105.639.965,1.753-.31,2.49L432.854,255.9A4.8,4.8,0,0,1,428.543,256.081Z" transform="translate(-214.596 -93.324)" fill="#5793ce"/>
        <path id="Trazado_4067" data-name="Trazado 4067" d="M437.658,261.344,423.9,253.4c-1.105-.639-.968-1.753.31-2.49l13.637-7.873a4.8,4.8,0,0,1,4.311-.18l13.763,7.948c1.105.637.968,1.751-.308,2.488l-13.639,7.873A4.788,4.788,0,0,1,437.658,261.344Z" transform="translate(-202.458 -86.316)" fill="#5793ce"/>
        <path id="Trazado_4068" data-name="Trazado 4068" d="M446.776,266.609l-13.765-7.948c-1.105-.637-.965-1.751.31-2.49l13.637-7.873a4.8,4.8,0,0,1,4.313-.177l13.763,7.946c1.105.639.965,1.753-.31,2.49l-13.637,7.873A4.8,4.8,0,0,1,446.776,266.609Z" transform="translate(-190.32 -79.308)" fill="#5793ce"/>
        <path id="Trazado_4069" data-name="Trazado 4069" d="M455.891,271.871l-13.763-7.946c-1.105-.639-.968-1.753.31-2.49l13.637-7.873a4.8,4.8,0,0,1,4.311-.18l13.763,7.948c1.105.637.968,1.751-.308,2.488L460.2,271.691A4.788,4.788,0,0,1,455.891,271.871Z" transform="translate(-178.181 -72.3)" fill="#5793ce"/>
        <path id="Trazado_4070" data-name="Trazado 4070" d="M387.275,222.008l-13.763-7.946c-1.105-.639-.968-1.753.308-2.49l13.639-7.873a4.8,4.8,0,0,1,4.311-.18l13.763,7.948c1.105.636.967,1.751-.31,2.488l-13.637,7.873A4.789,4.789,0,0,1,387.275,222.008Z" transform="translate(-269.541 -138.69)" fill="#5793ce"/>
        <path id="Trazado_4071" data-name="Trazado 4071" d="M378.021,216.666l-13.763-7.946c-1.105-.639-.965-1.753.31-2.49l13.637-7.873a4.8,4.8,0,0,1,4.311-.179l13.765,7.948c1.105.636.965,1.751-.31,2.488l-13.637,7.873A4.793,4.793,0,0,1,378.021,216.666Z" transform="translate(-281.861 -145.803)" fill="#5793ce"/>
        <path id="Trazado_4072" data-name="Trazado 4072" d="M377.824,216.55,348.18,199.437c-1.105-.639-.965-1.753.31-2.49l13.637-7.873a4.8,4.8,0,0,1,4.313-.18l29.642,17.115c1.105.639.965,1.753-.31,2.49l-13.637,7.873A4.788,4.788,0,0,1,377.824,216.55Z" transform="translate(-303.269 -158.163)" fill="#5793ce"/>
        <path id="Trazado_4073" data-name="Trazado 4073" d="M381.111,208.2l-24.056-13.889c-1.105-.636-.968-1.751.31-2.49L371,183.949a4.8,4.8,0,0,1,4.311-.177l24.056,13.889c1.105.636.967,1.751-.31,2.49l-13.637,7.873A4.788,4.788,0,0,1,381.111,208.2Z" transform="translate(-291.453 -164.985)" fill="#5793ce"/>
        <path id="Trazado_4074" data-name="Trazado 4074" d="M396.393,227.271l-13.765-7.946c-1.105-.637-.965-1.751.31-2.488l13.637-7.876a4.789,4.789,0,0,1,4.311-.177l13.765,7.946c1.105.639.965,1.753-.31,2.49L400.7,227.094A4.788,4.788,0,0,1,396.393,227.271Z" transform="translate(-257.403 -131.683)" fill="#5793ce"/>
        <path id="Trazado_4075" data-name="Trazado 4075" d="M405.508,232.535l-13.763-7.946c-1.105-.639-.968-1.753.31-2.49l13.637-7.873a4.8,4.8,0,0,1,4.311-.18l13.763,7.948c1.105.636.968,1.751-.308,2.488l-13.639,7.873A4.788,4.788,0,0,1,405.508,232.535Z" transform="translate(-245.264 -124.674)" fill="#5793ce"/>
        <path id="Trazado_4076" data-name="Trazado 4076" d="M414.626,237.8l-13.765-7.946c-1.105-.639-.965-1.753.31-2.49l13.637-7.873a4.793,4.793,0,0,1,4.313-.177l13.763,7.946c1.105.639.965,1.753-.31,2.49l-13.637,7.873A4.788,4.788,0,0,1,414.626,237.8Z" transform="translate(-233.126 -117.666)" fill="#5793ce"/>
        <path id="Trazado_4077" data-name="Trazado 4077" d="M423.741,243.062l-13.763-7.946c-1.105-.639-.968-1.753.31-2.49l13.637-7.873a4.8,4.8,0,0,1,4.311-.179L442,232.519c1.105.639.968,1.753-.308,2.49l-13.639,7.873A4.789,4.789,0,0,1,423.741,243.062Z" transform="translate(-220.988 -110.658)" fill="#5793ce"/>
        <path id="Trazado_4078" data-name="Trazado 4078" d="M432.859,248.325l-13.765-7.946c-1.105-.639-.965-1.753.31-2.49l13.637-7.873a4.793,4.793,0,0,1,4.313-.177l13.763,7.946c1.105.639.965,1.753-.31,2.49l-13.637,7.873A4.788,4.788,0,0,1,432.859,248.325Z" transform="translate(-208.85 -103.65)" fill="#5793ce"/>
        <path id="Trazado_4079" data-name="Trazado 4079" d="M441.974,253.589l-13.763-7.948c-1.105-.637-.968-1.751.31-2.488l13.637-7.873a4.788,4.788,0,0,1,4.311-.18l13.763,7.946c1.105.639.967,1.753-.308,2.49l-13.639,7.873A4.8,4.8,0,0,1,441.974,253.589Z" transform="translate(-196.711 -96.642)" fill="#5793ce"/>
        <path id="Trazado_4080" data-name="Trazado 4080" d="M451.092,258.852l-13.765-7.946c-1.105-.639-.965-1.753.31-2.49l13.637-7.873a4.793,4.793,0,0,1,4.313-.177l13.763,7.946c1.105.637.968,1.751-.31,2.488L455.4,258.672A4.789,4.789,0,0,1,451.092,258.852Z" transform="translate(-184.573 -89.634)" fill="#5793ce"/>
        <path id="Trazado_4081" data-name="Trazado 4081" d="M460.207,264.116l-13.763-7.948c-1.105-.636-.968-1.751.31-2.488l13.637-7.873a4.788,4.788,0,0,1,4.311-.18l13.765,7.946c1.105.639.965,1.753-.31,2.49l-13.637,7.873A4.8,4.8,0,0,1,460.207,264.116Z" transform="translate(-172.435 -82.626)" fill="#5793ce"/>
        <path id="Trazado_4082" data-name="Trazado 4082" d="M469.324,269.379l-13.763-7.946c-1.105-.639-.968-1.753.308-2.49l13.639-7.873a4.8,4.8,0,0,1,4.311-.18l13.763,7.948c1.105.637.968,1.751-.31,2.488L473.635,269.2A4.789,4.789,0,0,1,469.324,269.379Z" transform="translate(-160.296 -75.618)" fill="#5793ce"/>
        <path id="Trazado_4083" data-name="Trazado 4083" d="M494.821,284.1,464.79,266.762c-1.105-.639-.965-1.753.31-2.49l13.637-7.873a4.8,4.8,0,0,1,4.313-.18l30.029,17.339c1.105.636.968,1.751-.31,2.49l-13.637,7.873A4.788,4.788,0,0,1,494.821,284.1Z" transform="translate(-148.007 -68.522)" fill="#5793ce"/>
        <path id="Trazado_4084" data-name="Trazado 4084" d="M509.9,272.309l-25.348-14.635c-1.105-.636-.965-1.751.31-2.488l13.637-7.876a4.788,4.788,0,0,1,4.311-.177l25.348,14.635c1.105.636.967,1.751-.31,2.488l-13.637,7.873A4.789,4.789,0,0,1,509.9,272.309Z" transform="translate(-121.7 -80.622)" fill="#5793ce"/>
        <path id="Trazado_4085" data-name="Trazado 4085" d="M412.358,226.242l-13.765-7.948c-1.105-.637-.965-1.751.31-2.488l13.637-7.873a4.789,4.789,0,0,1,4.311-.18l13.765,7.946c1.105.639.965,1.753-.31,2.49l-13.637,7.873A4.8,4.8,0,0,1,412.358,226.242Z" transform="translate(-236.146 -133.053)" fill="#5793ce"/>
        <path id="Trazado_4086" data-name="Trazado 4086" d="M403.013,220.847,389.25,212.9c-1.105-.639-.968-1.753.31-2.49l13.637-7.873a4.788,4.788,0,0,1,4.311-.177l13.763,7.946c1.105.639.968,1.753-.308,2.49l-13.639,7.873A4.788,4.788,0,0,1,403.013,220.847Z" transform="translate(-248.587 -140.236)" fill="#5793ce"/>
        <path id="Trazado_4087" data-name="Trazado 4087" d="M393.67,215.453l-13.763-7.946c-1.105-.639-.968-1.753.308-2.49l13.639-7.873a4.8,4.8,0,0,1,4.311-.18l13.763,7.948c1.105.636.968,1.751-.31,2.488l-13.637,7.873A4.788,4.788,0,0,1,393.67,215.453Z" transform="translate(-261.026 -147.418)" fill="#5793ce"/>
        <path id="Trazado_4088" data-name="Trazado 4088" d="M384.328,210.059l-13.765-7.948c-1.105-.636-.965-1.751.31-2.488l13.637-7.873a4.793,4.793,0,0,1,4.313-.179l13.763,7.946c1.105.639.965,1.753-.31,2.49l-13.637,7.873A4.8,4.8,0,0,1,384.328,210.059Z" transform="translate(-273.467 -154.601)" fill="#5793ce"/>
        <path id="Trazado_4089" data-name="Trazado 4089" d="M421.473,231.5l-13.763-7.946c-1.105-.639-.968-1.753.31-2.49l13.637-7.873a4.8,4.8,0,0,1,4.311-.18l13.763,7.948c1.105.637.967,1.751-.308,2.488l-13.639,7.873A4.788,4.788,0,0,1,421.473,231.5Z" transform="translate(-224.008 -126.045)" fill="#5793ce"/>
        <path id="Trazado_4090" data-name="Trazado 4090" d="M430.591,236.77l-13.765-7.948c-1.105-.636-.965-1.751.31-2.488l13.637-7.876a4.8,4.8,0,0,1,4.313-.177l13.763,7.946c1.105.639.965,1.753-.31,2.49L434.9,236.59A4.8,4.8,0,0,1,430.591,236.77Z" transform="translate(-211.87 -119.037)" fill="#5793ce"/>
        <path id="Trazado_4091" data-name="Trazado 4091" d="M439.706,242.032l-13.763-7.946c-1.105-.639-.968-1.753.31-2.49l13.637-7.873a4.8,4.8,0,0,1,4.311-.18l13.763,7.948c1.105.636.967,1.751-.308,2.488l-13.639,7.873A4.789,4.789,0,0,1,439.706,242.032Z" transform="translate(-199.731 -112.029)" fill="#5793ce"/>
        <path id="Trazado_4092" data-name="Trazado 4092" d="M448.824,247.295l-13.765-7.946c-1.105-.639-.965-1.751.31-2.49l13.637-7.873a4.793,4.793,0,0,1,4.313-.177l13.763,7.946c1.105.639.965,1.753-.31,2.49l-13.637,7.873A4.788,4.788,0,0,1,448.824,247.295Z" transform="translate(-187.593 -105.021)" fill="#5793ce"/>
        <path id="Trazado_4093" data-name="Trazado 4093" d="M457.939,252.56l-13.763-7.946c-1.105-.639-.968-1.753.31-2.49l13.637-7.873a4.788,4.788,0,0,1,4.311-.18l13.763,7.948c1.105.637.967,1.751-.308,2.488L462.25,252.38A4.788,4.788,0,0,1,457.939,252.56Z" transform="translate(-175.455 -98.013)" fill="#5793ce"/>
        <path id="Trazado_4094" data-name="Trazado 4094" d="M467.057,257.822l-13.765-7.946c-1.105-.639-.965-1.753.31-2.49l13.637-7.873a4.793,4.793,0,0,1,4.313-.177l13.763,7.946c1.105.639.967,1.753-.31,2.49l-13.637,7.873A4.788,4.788,0,0,1,467.057,257.822Z" transform="translate(-163.316 -91.005)" fill="#5793ce"/>
        <path id="Trazado_4095" data-name="Trazado 4095" d="M476.172,263.086l-13.763-7.948c-1.105-.636-.968-1.751.31-2.488l13.637-7.873a4.788,4.788,0,0,1,4.311-.18l13.765,7.946c1.105.639.965,1.753-.31,2.49l-13.637,7.873A4.8,4.8,0,0,1,476.172,263.086Z" transform="translate(-151.178 -83.997)" fill="#5793ce"/>
        <path id="Trazado_4096" data-name="Trazado 4096" d="M485.289,268.349,471.526,260.4c-1.105-.639-.968-1.753.308-2.49l13.639-7.873a4.8,4.8,0,0,1,4.311-.179l13.763,7.948c1.105.639.968,1.751-.31,2.488L489.6,268.169A4.789,4.789,0,0,1,485.289,268.349Z" transform="translate(-139.039 -76.989)" fill="#5793ce"/>
        <path id="Trazado_4097" data-name="Trazado 4097" d="M494.4,273.613l-13.763-7.948c-1.105-.636-.965-1.751.31-2.488l13.637-7.873a4.788,4.788,0,0,1,4.311-.18l13.765,7.946c1.1.639.965,1.753-.31,2.49l-13.637,7.873A4.8,4.8,0,0,1,494.4,273.613Z" transform="translate(-126.901 -69.981)" fill="#5793ce"/>
        <path id="Trazado_4098" data-name="Trazado 4098" d="M407.556,213.223l-13.763-7.946c-1.105-.639-.968-1.753.31-2.49l13.637-7.873a4.8,4.8,0,0,1,4.311-.18l13.763,7.948c1.105.637.968,1.751-.308,2.488l-13.639,7.873A4.788,4.788,0,0,1,407.556,213.223Z" transform="translate(-242.538 -150.387)" fill="#5793ce"/>
        <path id="Trazado_4099" data-name="Trazado 4099" d="M398.485,207.986l-13.763-7.948c-1.105-.636-.968-1.751.308-2.488l13.639-7.873a4.788,4.788,0,0,1,4.311-.18l13.763,7.946c1.105.639.968,1.753-.31,2.49L402.8,207.807A4.8,4.8,0,0,1,398.485,207.986Z" transform="translate(-254.616 -157.361)" fill="#5793ce"/>
        <path id="Trazado_4100" data-name="Trazado 4100" d="M389.415,202.748,375.65,194.8c-1.105-.639-.965-1.753.31-2.49l13.637-7.873a4.793,4.793,0,0,1,4.313-.177l13.763,7.946c1.105.639.967,1.753-.31,2.49l-13.637,7.873A4.788,4.788,0,0,1,389.415,202.748Z" transform="translate(-266.694 -164.334)" fill="#5793ce"/>
        <path id="Trazado_4101" data-name="Trazado 4101" d="M380.344,197.511l-13.765-7.946c-1.105-.639-.965-1.753.31-2.49l13.637-7.873a4.788,4.788,0,0,1,4.311-.177L398.6,186.97c1.105.636.965,1.753-.31,2.488l-13.637,7.876A4.788,4.788,0,0,1,380.344,197.511Z" transform="translate(-278.772 -171.307)" fill="#5793ce"/>
        <path id="Trazado_4102" data-name="Trazado 4102" d="M389.672,189.117l-13.765-7.948c-1.105-.637-.965-1.751.31-2.488l4.509-2.6a4.788,4.788,0,0,1,4.311-.177l13.763,7.946c1.105.639.968,1.753-.31,2.49l-4.507,2.6A4.8,4.8,0,0,1,389.672,189.117Z" transform="translate(-266.352 -175.468)" fill="#5793ce"/>
        <path id="Trazado_4103" data-name="Trazado 4103" d="M401.507,195.95,387.745,188c-1.105-.639-.965-1.753.31-2.49l4.507-2.6a4.8,4.8,0,0,1,4.313-.18l13.763,7.948c1.105.637.968,1.751-.31,2.488l-4.507,2.6A4.793,4.793,0,0,1,401.507,195.95Z" transform="translate(-250.59 -166.367)" fill="#5793ce"/>
        <path id="Trazado_4104" data-name="Trazado 4104" d="M410.543,201.167l-13.765-7.948c-1.105-.637-.965-1.751.31-2.488l4.509-2.6a4.788,4.788,0,0,1,4.311-.177L419.67,195.9c1.105.639.968,1.753-.308,2.49l-4.509,2.6A4.8,4.8,0,0,1,410.543,201.167Z" transform="translate(-238.563 -159.424)" fill="#5793ce"/>
        <path id="Trazado_4105" data-name="Trazado 4105" d="M419.575,206.38l-13.763-7.946c-1.105-.639-.968-1.753.31-2.49l4.507-2.6a4.8,4.8,0,0,1,4.311-.179l13.765,7.948c1.105.637.965,1.751-.31,2.488l-4.509,2.6A4.788,4.788,0,0,1,419.575,206.38Z" transform="translate(-226.535 -152.479)" fill="#5793ce"/>
        <path id="Trazado_4106" data-name="Trazado 4106" d="M428.61,211.6l-13.765-7.948c-1.105-.636-.965-1.751.31-2.488l4.509-2.6a4.788,4.788,0,0,1,4.311-.177l13.763,7.946c1.105.636.968,1.751-.31,2.488l-4.507,2.6A4.8,4.8,0,0,1,428.61,211.6Z" transform="translate(-214.507 -145.535)" fill="#5793ce"/>
        <path id="Trazado_4107" data-name="Trazado 4107" d="M479.042,240.712l-13.765-7.946c-1.105-.639-.965-1.751.31-2.488l4.509-2.6a4.788,4.788,0,0,1,4.311-.177l13.763,7.946c1.105.637.967,1.751-.31,2.49l-4.507,2.6A4.788,4.788,0,0,1,479.042,240.712Z" transform="translate(-147.359 -106.767)" fill="#5793ce"/>
        <path id="Trazado_4108" data-name="Trazado 4108" d="M488.074,245.929l-13.763-7.946c-1.105-.639-.968-1.753.308-2.49l4.509-2.6a4.788,4.788,0,0,1,4.311-.179l13.765,7.946c1.105.639.965,1.753-.31,2.49l-4.509,2.6A4.788,4.788,0,0,1,488.074,245.929Z" transform="translate(-135.331 -99.823)" fill="#5793ce"/>
        <path id="Trazado_4109" data-name="Trazado 4109" d="M497.107,251.143,483.344,243.2c-1.105-.639-.968-1.753.31-2.49l4.507-2.6a4.8,4.8,0,0,1,4.313-.18l13.763,7.948c1.105.637.965,1.751-.31,2.488l-4.507,2.6A4.793,4.793,0,0,1,497.107,251.143Z" transform="translate(-123.304 -92.879)" fill="#5793ce"/>
        <path id="Trazado_4110" data-name="Trazado 4110" d="M506.142,256.36l-13.765-7.946c-1.105-.639-.965-1.753.31-2.49l4.509-2.6a4.8,4.8,0,0,1,4.311-.177l13.763,7.946c1.105.639.968,1.753-.308,2.49l-4.509,2.6A4.8,4.8,0,0,1,506.142,256.36Z" transform="translate(-111.276 -85.934)" fill="#5793ce"/>
        <path id="Trazado_4111" data-name="Trazado 4111" d="M416.674,218.486l-13.765-7.946c-1.105-.639-.965-1.753.31-2.49l13.637-7.873a4.793,4.793,0,0,1,4.313-.177l13.763,7.946c1.105.639.965,1.753-.31,2.49l-13.637,7.873A4.788,4.788,0,0,1,416.674,218.486Z" transform="translate(-230.4 -143.38)" fill="#5793ce"/>
        <path id="Trazado_4112" data-name="Trazado 4112" d="M425.789,223.75,412.026,215.8c-1.105-.636-.967-1.751.31-2.488l13.637-7.873a4.8,4.8,0,0,1,4.311-.18l13.763,7.946c1.105.639.968,1.753-.308,2.49L430.1,223.57A4.8,4.8,0,0,1,425.789,223.75Z" transform="translate(-218.261 -136.371)" fill="#5793ce"/>
        <path id="Trazado_4113" data-name="Trazado 4113" d="M434.907,229.013l-13.765-7.946c-1.105-.639-.965-1.753.31-2.49l13.637-7.873a4.793,4.793,0,0,1,4.313-.177l13.763,7.946c1.105.639.968,1.751-.31,2.49l-13.637,7.873A4.8,4.8,0,0,1,434.907,229.013Z" transform="translate(-206.123 -129.363)" fill="#5793ce"/>
        <path id="Trazado_4114" data-name="Trazado 4114" d="M444.022,234.277l-13.763-7.948c-1.105-.636-.967-1.751.31-2.488l13.637-7.873a4.789,4.789,0,0,1,4.311-.18l13.765,7.946c1.105.639.965,1.753-.31,2.49L448.335,234.1A4.8,4.8,0,0,1,444.022,234.277Z" transform="translate(-193.985 -122.355)" fill="#5793ce"/>
        <path id="Trazado_4115" data-name="Trazado 4115" d="M453.139,239.54l-13.763-7.946c-1.105-.639-.967-1.753.308-2.49l13.639-7.873a4.8,4.8,0,0,1,4.311-.18L471.4,229c1.105.637.967,1.751-.31,2.488L457.45,239.36A4.788,4.788,0,0,1,453.139,239.54Z" transform="translate(-181.846 -115.347)" fill="#5793ce"/>
        <path id="Trazado_4116" data-name="Trazado 4116" d="M462.255,244.8l-13.763-7.946c-1.105-.637-.968-1.751.31-2.488l13.637-7.876a4.8,4.8,0,0,1,4.311-.177l13.765,7.946c1.105.639.965,1.753-.31,2.49l-13.637,7.873A4.793,4.793,0,0,1,462.255,244.8Z" transform="translate(-169.708 -108.339)" fill="#5793ce"/>
        <path id="Trazado_4117" data-name="Trazado 4117" d="M471.372,250.067l-13.763-7.946c-1.105-.639-.968-1.753.308-2.49l13.639-7.873a4.8,4.8,0,0,1,4.311-.18l13.763,7.948c1.105.637.968,1.751-.31,2.488l-13.637,7.873A4.789,4.789,0,0,1,471.372,250.067Z" transform="translate(-157.569 -101.331)" fill="#5793ce"/>
        <path id="Trazado_4118" data-name="Trazado 4118" d="M480.487,255.33l-13.763-7.946c-1.105-.639-.965-1.753.31-2.49l13.637-7.873a4.788,4.788,0,0,1,4.311-.177l13.765,7.946c1.105.639.965,1.753-.31,2.49L484.8,255.152A4.793,4.793,0,0,1,480.487,255.33Z" transform="translate(-145.431 -94.323)" fill="#5793ce"/>
        <path id="Trazado_4119" data-name="Trazado 4119" d="M489.605,260.594l-13.763-7.948c-1.105-.636-.968-1.751.308-2.488l13.639-7.873a4.8,4.8,0,0,1,4.311-.18l13.763,7.948c1.105.637.968,1.751-.31,2.488l-13.637,7.873A4.788,4.788,0,0,1,489.605,260.594Z" transform="translate(-133.293 -87.314)" fill="#5793ce"/>
        <path id="Trazado_4120" data-name="Trazado 4120" d="M379.841,227.963l-40.535-23.4c-1.105-.637-.968-1.751.31-2.488l13.637-7.873a4.788,4.788,0,0,1,4.311-.18l40.535,23.4c1.105.637.968,1.753-.31,2.488l-13.637,7.876A4.788,4.788,0,0,1,379.841,227.963Z" transform="translate(-315.085 -151.341)" fill="#5793ce"/>
        <path id="Trazado_4121" data-name="Trazado 4121" d="M491.84,292.626l-40.535-23.4c-1.105-.639-.968-1.753.31-2.49l13.637-7.873a4.788,4.788,0,0,1,4.311-.177l40.535,23.4c1.105.639.968,1.753-.31,2.49l-13.637,7.873A4.8,4.8,0,0,1,491.84,292.626Z" transform="translate(-165.963 -65.245)" fill="#5793ce"/>
        <path id="Trazado_4122" data-name="Trazado 4122" d="M440.094,275.236l-13.765-7.946c-1.105-.639-.965-1.753.31-2.49l16.246-9.38a4.8,4.8,0,0,1,4.311-.179l13.765,7.948c1.1.636.965,1.751-.31,2.488L444.4,275.056A4.8,4.8,0,0,1,440.094,275.236Z" transform="translate(-199.217 -69.824)" fill="#5793ce"/>
        <path id="Trazado_4123" data-name="Trazado 4123" d="M378.6,239.733l-22.011-12.709c-1.105-.639-.967-1.753.31-2.49l16.246-9.379a4.788,4.788,0,0,1,4.311-.177l22.011,12.706c1.105.639.968,1.753-.31,2.49l-16.246,9.379A4.8,4.8,0,0,1,378.6,239.733Z" transform="translate(-292.076 -123.437)" fill="#5793ce"/>
        <path id="Trazado_4124" data-name="Trazado 4124" d="M436.02,272.885l-22.011-12.709c-1.105-.639-.968-1.753.308-2.49l16.246-9.379a4.8,4.8,0,0,1,4.311-.179l22.014,12.709c1.105.639.965,1.753-.31,2.49l-16.246,9.38A4.8,4.8,0,0,1,436.02,272.885Z" transform="translate(-215.622 -79.296)" fill="#5793ce"/>
        <path id="Trazado_4125" data-name="Trazado 4125" d="M391.751,247.327,369.74,234.618c-1.105-.639-.965-1.753.31-2.49l16.246-9.379a4.788,4.788,0,0,1,4.311-.177l22.011,12.706c1.105.639.968,1.753-.31,2.49l-16.246,9.379A4.8,4.8,0,0,1,391.751,247.327Z" transform="translate(-274.563 -113.326)" fill="#5793ce"/>
        <path id="Trazado_4126" data-name="Trazado 4126" d="M390.245,222.362l95.7,55.251a1.31,1.31,0,0,1,0,2.483l-16.565,9.564a4.756,4.756,0,0,1-4.3,0l-95.7-55.251Z" transform="translate(-274.052 -113.03)" fill="#11b3c9"/>
        <path id="Trazado_4127" data-name="Trazado 4127" d="M463.594,273.316l15.329,8.853c.907.522.793,1.436-.252,2.04l-6.647,3.835a3.927,3.927,0,0,1-3.532.147l-15.332-8.85c-.907-.525-.793-1.436.254-2.04l6.645-3.838A3.931,3.931,0,0,1,463.594,273.316Z" transform="translate(-163.313 -45.655)" fill="#5793ce"/>
        <path id="Trazado_4128" data-name="Trazado 4128" d="M454.4,268.009l15.329,8.85c.907.525.793,1.439-.252,2.042l-6.647,3.835a3.931,3.931,0,0,1-3.534.147l-15.329-8.85c-.907-.525-.793-1.439.252-2.042l6.647-3.835A3.931,3.931,0,0,1,454.4,268.009Z" transform="translate(-175.552 -52.722)" fill="#5793ce"/>
        <path id="Trazado_4129" data-name="Trazado 4129" d="M445.284,262.747l15.332,8.85c.9.522.793,1.436-.254,2.04l-6.645,3.838a3.932,3.932,0,0,1-3.534.147l-15.332-8.853c-.9-.522-.793-1.436.254-2.04l6.645-3.838A3.924,3.924,0,0,1,445.284,262.747Z" transform="translate(-187.691 -59.73)" fill="#5793ce"/>
        <path id="Trazado_4130" data-name="Trazado 4130" d="M459.435,265.1l15.332,8.853c.9.522.793,1.436-.254,2.04l-6.647,3.838a3.926,3.926,0,0,1-3.532.147L449,271.127c-.9-.522-.793-1.436.254-2.04l6.645-3.838A3.932,3.932,0,0,1,459.435,265.1Z" transform="translate(-168.849 -56.592)" fill="#5793ce"/>
      </g>
      <g id="Grupo_1749" data-name="Grupo 1749" transform="translate(322.717 89.802)">
        <path id="Trazado_4131" data-name="Trazado 4131" d="M554.522,204.2,440.033,138.1l1.473-7.443L556,196.754Z" transform="translate(-382.017 -45.758)" fill="#d4ecff"/>
        <path id="Trazado_4132" data-name="Trazado 4132" d="M517.193,198.186l-79.919-46.141,1.473-7.443,79.919,46.142Z" transform="translate(-385.692 -27.187)" fill="#d4ecff"/>
        <path id="Trazado_4133" data-name="Trazado 4133" d="M507.793,184.988l-69.14-39.918,1.473-7.443,69.14,39.918Z" transform="translate(-383.855 -36.473)" fill="#fff"/>
        <path id="Trazado_4134" data-name="Trazado 4134" d="M507.5,184.82l-34.57-19.959,1.473-7.443,34.57,19.959Z" transform="translate(-338.214 -10.122)" fill="#08c9f1"/>
        <path id="Trazado_4135" data-name="Trazado 4135" d="M454.546,121.642l-34.57-19.959,1.473-7.443,34.57,19.959Z" transform="translate(-408.722 -94.241)" fill="#d4ecff"/>
        <path id="Trazado_4136" data-name="Trazado 4136" d="M452.937,129.062,418.367,109.1l1.473-7.443,34.57,19.959Z" transform="translate(-410.865 -84.363)" fill="#fff"/>
        <path id="Trazado_4137" data-name="Trazado 4137" d="M525.713,231.967l-34.57-19.959,1.473-7.443,34.57,19.959Z" transform="translate(-313.967 52.652)" fill="#d4ecff"/>
        <path id="Trazado_4138" data-name="Trazado 4138" d="M449.719,143.9l-34.57-19.959,1.473-7.443,34.57,19.959Z" transform="translate(-415.149 -64.606)" fill="#d4ecff"/>
      </g>
      <g id="Grupo_1750" data-name="Grupo 1750" transform="translate(423.09 167.028)">
        <path id="Trazado_4139" data-name="Trazado 4139" d="M467.091,134.789a4.312,4.312,0,0,1-6.216,1.914,5.41,5.41,0,0,1-2.227-6.787A4.312,4.312,0,0,1,464.865,128,5.407,5.407,0,0,1,467.091,134.789Z" transform="translate(-458.201 -127.364)" fill="#08c9f1"/>
        <path id="Trazado_4140" data-name="Trazado 4140" d="M473.479,138.478a4.315,4.315,0,0,1-6.216,1.914,5.41,5.41,0,0,1-2.227-6.789,4.313,4.313,0,0,1,6.216-1.914A5.412,5.412,0,0,1,473.479,138.478Z" transform="translate(-449.697 -122.455)" fill="#fff"/>
        <path id="Trazado_4141" data-name="Trazado 4141" d="M479.864,142.165a4.313,4.313,0,0,1-6.216,1.914,5.412,5.412,0,0,1-2.227-6.789,4.316,4.316,0,0,1,6.216-1.914A5.41,5.41,0,0,1,479.864,142.165Z" transform="translate(-441.194 -117.545)" fill="#d4ecff"/>
        <path id="Trazado_4142" data-name="Trazado 4142" d="M486.251,145.851a4.312,4.312,0,0,1-6.216,1.914,5.41,5.41,0,0,1-2.227-6.787,4.312,4.312,0,0,1,6.216-1.914A5.41,5.41,0,0,1,486.251,145.851Z" transform="translate(-432.69 -112.636)" fill="#08c9f1"/>
      </g>
    </g>
    <g id="Grupo_1760" data-name="Grupo 1760" transform="translate(755.856 685.233)">
      <path id="Trazado_4143" data-name="Trazado 4143" d="M680.682,346.519c-4.63-2.672-12.135-2.672-16.763,0L447.706,471.4c-4.628,2.672-4.628,7.006,0,9.678s12.135,2.672,16.763,0L680.682,356.2C685.31,353.525,685.31,349.191,680.682,346.519Z" transform="translate(-404.02 -278.405)" fill="#173d7a" opacity="0.5"/>
      <g id="Grupo_1759" data-name="Grupo 1759" transform="translate(0)">
        <g id="Grupo_1758" data-name="Grupo 1758">
          <path id="Trazado_4144" data-name="Trazado 4144" d="M569.549,316.626h0a.948.948,0,0,0-1.016-.445l-13.08,2.837,5.15,8.762,8.841-10.046A.953.953,0,0,0,569.549,316.626Z" transform="translate(-255.937 -316.16)" fill="#d4ecff"/>
          <g id="Grupo_1752" data-name="Grupo 1752" transform="translate(156.319 1.445)">
            <path id="Trazado_4145" data-name="Trazado 4145" d="M587.221,322.266a6.546,6.546,0,0,0-3-5.1,2.135,2.135,0,0,0-1.961-.242,83.526,83.526,0,0,0-43.009,11.515l-.944.555,16.246,27.637,4.8-3.18a83.523,83.523,0,0,0,25.073-26l2.054-3.353A2.145,2.145,0,0,0,587.221,322.266Z" transform="translate(-435.086 -316.78)" fill="#5793ce"/>
            <path id="Trazado_4146" data-name="Trazado 4146" d="M559.677,342.736c-.056-7.23-5.2-15.978-11.487-19.542s-11.34-.6-11.282,6.631,5.2,15.978,11.487,19.542S559.733,349.964,559.677,342.736Z" transform="translate(-436.949 -310.249)" fill="#d4ecff"/>
            <path id="Trazado_4147" data-name="Trazado 4147" d="M514.883,409.721,611.3,349.655l-16.245-27.637-99.366,55.047Z" transform="translate(-491.832 -309.805)" fill="#d4ecff"/>
            <path id="Trazado_4148" data-name="Trazado 4148" d="M520.939,370.108c-.065-8.54-6.143-18.878-13.574-23.091s-13.4-.7-13.331,7.836,6.143,18.88,13.574,23.093S521.007,378.65,520.939,370.108Z" transform="translate(-494.034 -278.894)" fill="#d4ecff"/>
          </g>
          <g id="Grupo_1753" data-name="Grupo 1753" transform="translate(23.265 71.02)">
            <path id="Trazado_4149" data-name="Trazado 4149" d="M518.58,371.495c-.065-8.54-6.143-18.878-13.574-23.091s-13.4-.7-13.331,7.836,6.143,18.878,13.574,23.091S518.648,380.035,518.58,371.495Z" transform="translate(-364.12 -346.621)" fill="#d4ecff"/>
            <rect id="Rect치ngulo_255" data-name="Rect치ngulo 255" width="147.959" height="37.88" transform="translate(3.855 75.895) rotate(-30.447)" fill="#d4ecff"/>
            <path id="Trazado_4150" data-name="Trazado 4150" d="M463.87,403.655c-.068-8.54-6.143-18.88-13.574-23.093s-13.4-.7-13.331,7.836,6.143,18.88,13.571,23.093S463.936,412.2,463.87,403.655Z" transform="translate(-436.965 -303.804)" fill="#d4ecff"/>
            <path id="Trazado_4151" data-name="Trazado 4151" d="M456.316,396.992c-.294-5.041-4.4-11.322-9.17-14.026s-8.4-.811-8.107,4.229,4.4,11.322,9.17,14.026S456.609,402.033,456.316,396.992Z" transform="translate(-434.224 -299.871)" fill="#396caa"/>
          </g>
          <g id="Grupo_1754" data-name="Grupo 1754" transform="translate(150.061 65.47)">
            <path id="Trazado_4152" data-name="Trazado 4152" d="M518.286,370.862c-.065-8.54-6.143-18.88-13.574-23.091-2.991-1.7-5.738-2.122-7.957-1.49,2.411-2.52,6.367-2.816,10.869-.266,7.43,4.213,13.506,14.553,13.574,23.093.04,5.1-2.082,8.386-5.374,9.324C517.391,376.793,518.312,374.226,518.286,370.862Z" transform="translate(-484.153 -344.241)" fill="#fff"/>
            <path id="Trazado_4153" data-name="Trazado 4153" d="M523.282,369.864c-.065-8.54-6.143-18.878-13.574-23.093-3.714-2.105-7.064-2.28-9.477-.863L493,350.156l3.444,5.859c.629,7.766,5.829,16.612,12.308,20.939l3.446,5.859,7.228-4.248h0C521.839,377.145,523.314,374.136,523.282,369.864Z" transform="translate(-489.148 -343.243)" fill="#5793ce"/>
            <path id="Trazado_4154" data-name="Trazado 4154" d="M518.255,371.686c-.065-8.54-6.143-18.878-13.574-23.091s-13.4-.7-13.331,7.836,6.143,18.878,13.574,23.091S518.323,380.226,518.255,371.686Z" transform="translate(-491.35 -340.817)" fill="#d4ecff"/>
          </g>
          <g id="Grupo_1755" data-name="Grupo 1755" transform="translate(0 157.445)">
            <path id="Trazado_4155" data-name="Trazado 4155" d="M466.336,397.951l-8.281-14.091-27.036,15.894a8.172,8.172,0,0,0-2.905,11.186h0a8.174,8.174,0,0,0,11.186,2.9Z" transform="translate(-426.986 -383.465)" fill="#08c9f1"/>
            <path id="Trazado_4156" data-name="Trazado 4156" d="M451.207,394.424a12.779,12.779,0,0,0-5.857-9.965c-3.206-1.816-5.782-.3-5.752,3.383a12.776,12.776,0,0,0,5.854,9.962C448.659,399.62,451.235,398.107,451.207,394.424Z" transform="translate(-410.193 -383.69)" fill="#11b3c9"/>
          </g>
          <g id="Grupo_1757" data-name="Grupo 1757" transform="translate(34.57 77.857)">
            <path id="Trazado_4157" data-name="Trazado 4157" d="M478.306,390.14l-4.052-2.3c-2.329-1.32-5.409-.989-8.673.928l-13.893,8.167a10.574,10.574,0,0,0-4.714,8.312l.056,6.955a5.7,5.7,0,0,1-1.4,3.493l.52,3.222-3.465-1.984.009,0a1.78,1.78,0,0,1-.828-1.693l-.054-6.952c-.049-6.344,4.36-14.119,9.827-17.334l13.893-8.165c4.642-2.73,9.023-3.2,12.336-1.32l4.052,2.3c2.329,1.32,5.409.991,8.673-.928l56-32.918a1.8,1.8,0,0,1,1.851-.18l0,0,3.458,1.979-2.959,1.138a5.716,5.716,0,0,1-2.3,3.052l-56,32.918C486,391.549,481.619,392.017,478.306,390.14Z" transform="translate(-441.814 -349.554)" fill="#5793ce"/>
            <path id="Trazado_4158" data-name="Trazado 4158" d="M475.759,388.7c-2.329-1.32-5.409-.991-8.673.928L453.193,397.8a10.582,10.582,0,0,0-4.714,8.314l.056,6.952a5.74,5.74,0,0,1-2.558,4.511c-1.425.837-2.59.177-2.6-1.476l-.054-6.955c-.049-6.344,4.36-14.119,9.827-17.332l13.893-8.167c4.642-2.728,9.023-3.2,12.336-1.32l4.052,2.3c2.329,1.32,5.409.988,8.673-.93l56-32.918c1.425-.837,2.59-.175,2.6,1.476a5.728,5.728,0,0,1-2.555,4.511l-56,32.918c-4.642,2.728-9.023,3.2-12.336,1.32Z" transform="translate(-439.81 -348.408)" fill="#5793ce"/>
            <g id="Grupo_1756" data-name="Grupo 1756" transform="translate(8.496 57.093)">
              <path id="Trazado_4159" data-name="Trazado 4159" d="M445.458,375.8l.054,6.955c0,.044-.021.093-.021.14a4.518,4.518,0,0,0,.2-1.289l-.056-6.952c0-.2.03-.406.047-.609A7.881,7.881,0,0,0,445.458,375.8Z" transform="translate(-445.458 -374.042)" fill="#fff"/>
            </g>
          </g>
        </g>
      </g>
    </g>
    <g id="Grupo_1767" data-name="Grupo 1767" transform="translate(262.362 662.101)">
      <path id="Trazado_4160" data-name="Trazado 4160" d="M237.757,336.343a27.23,27.23,0,0,0,3.381,7.141c-17.752,14.947-15.145,35.531,7.857,48.812,25.966,14.991,68.065,14.991,94.033,0,19.141-11.051,24.154-27.162,15.075-40.873a38.574,38.574,0,0,0,6.477-6.983c16.549,16.073,14.719,36.7-5.5,51.761l21.545,12.611c8.125-2.9,18.153-2.69,24.336.881l78.3,45.207c7.409,4.278,6.479,11.751-2.077,16.689s-21.5,5.477-28.908,1.2l-78.3-45.207c-5.621-3.245-6.433-8.328-2.765-12.751l-21.729-12.72c-31.363,16.451-79.85,15.987-110.131-1.5C208.7,382.916,208.187,354.423,237.757,336.343Z" transform="translate(-214.456 -266.155)" fill="#173d7a" opacity="0.5"/>
      <g id="Grupo_1766" data-name="Grupo 1766">
        <g id="Grupo_1765" data-name="Grupo 1765">
          <path id="Trazado_4161" data-name="Trazado 4161" d="M240.788,325.848c28.306-16.344,74.2-16.344,102.505,0,11.734,6.775,18.589,15.3,20.591,24.117-1.767,7.778-7.318,15.322-16.654,21.645a59.4,59.4,0,0,0-7.908-5.442c-28.306-16.341-74.2-16.341-102.5,0-1.4.8-2.7,1.641-3.956,2.495-6.948-5.661-11.168-12.1-12.669-18.7C222.2,341.145,229.051,332.624,240.788,325.848Z" transform="translate(-208.828 -296.449)" fill="#d4ecff" opacity="0.5"/>
          <path id="Trazado_4162" data-name="Trazado 4162" d="M367.458,370.655,356.4,356.238l-33.575-15.6-28.929-2.569-33.878,4.148-23.5,12.147-15.01,9.58-2.7-15.6,5.069-17.973s12.839-8.494,13.627-9.284,30.022-11.259,30.022-11.259l29.232-1.975,23.5,2.963,23.9,7.111,15.8,11.06,11.851,15.01,1.334,18.763Z" transform="translate(-210.681 -304.095)" fill="#11b3c9"/>
          <path id="Trazado_4163" data-name="Trazado 4163" d="M215.319,326.844v30.37l8.12-13.167Z" transform="translate(-215.319 -278.802)" fill="#11b3c9"/>
          <path id="Trazado_4164" data-name="Trazado 4164" d="M346,338.058c-28.306-16.341-74.2-16.341-102.505,0-8.9,5.141-15,11.287-18.3,17.805-2.492-2.231-5.7-3.987-7.036-6.992,4.057-5.519,9.96-10.692,17.754-15.194,32.5-18.761,85.182-18.761,117.678,0a58.9,58.9,0,0,1,16.665,13.749,24.852,24.852,0,0,1-5.938,8.461C361.018,349.361,354.917,343.206,346,338.058Z" transform="translate(-211.539 -288.439)" fill="#139faa"/>
          <path id="Trazado_4165" data-name="Trazado 4165" d="M240.283,325.341c28.306-16.341,74.2-16.341,102.5,0,11.737,6.775,18.589,15.3,20.594,24.117-2.005,8.82-8.857,17.341-20.594,24.117-28.306,16.344-74.2,16.344-102.505,0-11.734-6.775-18.589-15.3-20.592-24.117C221.692,340.64,228.546,332.119,240.283,325.341Z" transform="translate(-209.5 -297.122)" fill="#d4ecff" opacity="0.5"/>
          <path id="Trazado_4166" data-name="Trazado 4166" d="M221.93,339.45a10.032,10.032,0,0,0,2.53,3.283l.026-.315,7.505,4.476,9.216,8.559,12.772,5.661,17.645,6.321,15.67,3.688,21.594.921,13.956-1.448,27.651-7.242,18.02-15.931c-.147-.319-.263-.641-.424-.958A24.852,24.852,0,0,0,374.027,338q.731.913,1.39,1.837l6.316-13.159v31.545l-.014-.028c.012,12.3-8.1,24.611-24.359,34-32.5,18.764-85.182,18.764-117.678,0C214.98,377.938,209.076,356.943,221.93,339.45Z" transform="translate(-215.31 -279.017)" fill="#11b3c9"/>
          <path id="Trazado_4167" data-name="Trazado 4167" d="M278.243,353.168l6.5-5.745c-.147-.319-.263-.641-.424-.958A24.852,24.852,0,0,0,290.255,338q.731.913,1.39,1.837l6.316-13.159v31.545l-.014-.028c.012,11.06-6.565,22.116-19.7,31.06Z" transform="translate(-131.538 -279.017)" fill="#11b3c9"/>
          <path id="Trazado_4168" data-name="Trazado 4168" d="M239.69,388.252c32.5,18.761,85.182,18.761,117.678,0s32.5-49.182,0-67.943-85.182-18.759-117.678,0S207.194,369.49,239.69,388.252Zm7.589-63.56c28.306-16.344,74.2-16.344,102.505,0s28.3,42.838,0,59.182-74.2,16.341-102.5,0S218.975,341.032,247.279,324.691Z" transform="translate(-215.319 -306.238)" fill="#08c9f1"/>
          <g id="Grupo_1763" data-name="Grupo 1763" transform="translate(143.248 89.297)">
            <g id="Grupo_1761" data-name="Grupo 1761">
              <path id="Trazado_4169" data-name="Trazado 4169" d="M329.432,371.509l-46.121-26.838L277.18,354.6l46.331,26.984Z" transform="translate(-276.201 -344.364)" fill="#d4ecff"/>
              <path id="Trazado_4170" data-name="Trazado 4170" d="M296.549,363.778c0,2.637,1.849,3.7,4.134,2.387a9.143,9.143,0,0,0,4.134-7.16c0-2.637-1.851-3.7-4.134-2.387A9.13,9.13,0,0,0,296.549,363.778Z" transform="translate(-250.412 -329.207)" fill="#983be9"/>
              <path id="Trazado_4171" data-name="Trazado 4171" d="M296.549,363.778c0,2.637,1.849,3.7,4.134,2.387a9.143,9.143,0,0,0,4.134-7.16c0-2.637-1.851-3.7-4.134-2.387A9.13,9.13,0,0,0,296.549,363.778Z" transform="translate(-250.412 -329.207)" fill="#983be9"/>
              <path id="Trazado_4172" data-name="Trazado 4172" d="M276.76,352.263c0,2.637,1.851,3.7,4.136,2.387a9.143,9.143,0,0,0,4.134-7.16c0-2.637-1.851-3.7-4.134-2.387A9.132,9.132,0,0,0,276.76,352.263Z" transform="translate(-276.76 -344.539)" fill="#d4ecff"/>
            </g>
            <path id="Trazado_4173" data-name="Trazado 4173" d="M286.817,379.18c0-11.343,7.964-25.138,17.789-30.81,5.029-2.9,9.561-3.1,12.8-1.1l.007-.007,97.5,56.669L389.436,447.3l-96.478-56.17a8.419,8.419,0,0,1-1.854-1.079l-.082-.047,0-.007C288.4,387.939,286.817,384.234,286.817,379.18Z" transform="translate(-263.369 -342.662)" fill="#5793ce"/>
            <path id="Trazado_4174" data-name="Trazado 4174" d="M401.058,415.944,291.925,352.937a29.8,29.8,0,0,1,5.88-4.567c5.029-2.9,9.561-3.1,12.8-1.1l.007-.007,97.5,56.669Z" transform="translate(-256.568 -342.662)" fill="#d4ecff"/>
            <g id="Grupo_1762" data-name="Grupo 1762" transform="translate(113.649 53.909)">
              <ellipse id="Elipse_913" data-name="Elipse 913" cx="25.157" cy="14.524" rx="25.157" ry="14.524" transform="translate(0 43.573) rotate(-59.999)" fill="#d4ecff"/>
              <path id="Trazado_4175" data-name="Trazado 4175" d="M334.862,388.87a11.587,11.587,0,1,0,11.587-11.587A11.587,11.587,0,0,0,334.862,388.87Z" transform="translate(-313.048 -354.851)" fill="#5793ce"/>
              <circle id="Elipse_914" data-name="Elipse 914" cx="3.424" cy="3.424" r="3.424" transform="translate(35.521 26.349)" fill="#fff"/>
            </g>
            <path id="Trazado_4176" data-name="Trazado 4176" d="M345.892,372.364c5.257-3.036,9.967-3.105,13.224-.8-3.154-1.471-7.323-1.086-11.911,1.562-9.825,5.672-17.789,19.465-17.789,30.81,0,5.274,1.737,9.067,4.567,11.07-3.6-1.679-5.88-5.784-5.88-11.83C328.1,391.832,336.07,378.036,345.892,372.364Z" transform="translate(-208.399 -310.708)" fill="#fff"/>
          </g>
          <g id="Grupo_1764" data-name="Grupo 1764" transform="translate(0.024 6.195)">
            <path id="Trazado_4177" data-name="Trazado 4177" d="M241.14,321.153c28.306-16.344,74.2-16.344,102.505,0,14.74,8.51,21.783,19.773,21.172,30.922-.562-10.258-7.608-20.424-21.172-28.255-28.306-16.341-74.2-16.341-102.505,0-13.564,7.834-20.61,18-21.174,28.257C219.355,340.926,226.4,329.663,241.14,321.153Z" transform="translate(-209.204 -308.895)" fill="#fff"/>
            <path id="Trazado_4178" data-name="Trazado 4178" d="M239.676,360.055c32.5,18.761,85.182,18.761,117.678,0,15.663-9.044,23.753-20.792,24.319-32.64.609,12.737-7.482,25.585-24.319,35.305-32.5,18.761-85.182,18.764-117.678,0-16.835-9.72-24.926-22.569-24.315-35.305C215.926,339.266,224.016,351.014,239.676,360.055Z" transform="translate(-215.329 -284.237)" fill="#11b3c9"/>
          </g>
        </g>
      </g>
    </g>
    <g id="Grupo_1773" data-name="Grupo 1773" transform="translate(496.618 316.783)">
      <g id="Grupo_1772" data-name="Grupo 1772" transform="translate(0 0)">
        <g id="Grupo_1769" data-name="Grupo 1769" transform="translate(6.582)">
          <path id="Trazado_4179" data-name="Trazado 4179" d="M360.181,315.134s-8.743-4.409-14.112,2.154-13.042,22.063-13.28,32.533,8.286,9.764,13.355,7.286,19.869-23.951,20.764-28.157-1.056-9.9-2.481-11.009S360.181,315.134,360.181,315.134Z" transform="translate(-299.757 48.995)" fill="#173d7a"/>
          <path id="Trazado_4180" data-name="Trazado 4180" d="M354.805,314.6l.4,9.058a5.135,5.135,0,0,1-2.558,4.712,10.088,10.088,0,0,1-6.745,1.047c-6.584-1.059-7.172-2.94-7.643-11.993S354.805,314.6,354.805,314.6Z" transform="translate(-292.474 47.425)" fill="#d4ecff"/>
          <g id="Grupo_1768" data-name="Grupo 1768" transform="translate(0 161.099)">
            <path id="Trazado_4181" data-name="Trazado 4181" d="M346.454,307.664s-8.741-4.409-14.11,2.157-13.042,22.06-13.28,32.533,8.286,9.764,13.352,7.286,19.871-23.951,20.766-28.157-1.056-9.9-2.481-11.012S346.454,307.664,346.454,307.664Z" transform="translate(-318.032 -122.049)" fill="#173d7a"/>
            <path id="Trazado_4182" data-name="Trazado 4182" d="M341.08,307.128l.4,9.058a5.131,5.131,0,0,1-2.56,4.71,10.063,10.063,0,0,1-6.743,1.049c-6.586-1.059-7.174-2.94-7.643-12S341.08,307.128,341.08,307.128Z" transform="translate(-310.749 -123.619)" fill="#d4ecff"/>
            <path id="Trazado_4183" data-name="Trazado 4183" d="M426.954,244.454c-2.588-42.1-45.592,6.195-45.592,6.195L351.927,279.5l-26.5,29.115a26.121,26.121,0,0,0-6.582,20.988l10.72,81.641a8.024,8.024,0,0,0,8.046,6.973,27.552,27.552,0,0,0,3.973-.347c9.564-1.49,8.857-10.585,8.857-10.585l-1.958-76.358,55.661-33.554S429.542,286.553,426.954,244.454Z" transform="translate(-318.618 -227.224)" fill="#173d7a"/>
          </g>
          <path id="Trazado_4184" data-name="Trazado 4184" d="M440.679,251.334c-2.588-42.1-45.592,6.192-45.592,6.192l-29.432,28.849-26.506,29.118a26.12,26.12,0,0,0-6.582,20.988l10.722,81.641a8.022,8.022,0,0,0,8.044,6.973,27.217,27.217,0,0,0,3.973-.35c9.564-1.487,8.86-10.582,8.86-10.582L362.26,340l55.605-35.751S443.267,293.433,440.679,251.334Z" transform="translate(-300.344 -56.965)" fill="#173d7a"/>
          <path id="Trazado_4185" data-name="Trazado 4185" d="M403.819,186.207c32.6,13.516,31.95,32.79,31.95,32.79s-6.386,70.655-4.208,117.844c.912,19.727-104.806,21.23-89.039-31.4,18.589-62.052,11.62-112.288,20.323-119.863S395.386,182.71,403.819,186.207Z" transform="translate(-288.926 -126.977)" fill="#08c9f1"/>
          <path id="Trazado_4186" data-name="Trazado 4186" d="M391.164,200.509c-1.7,6.621-10.377,10.109-19.372,7.792s-14.9-9.561-13.2-16.18,10.377-10.107,19.372-7.792S392.868,193.89,391.164,200.509Z" transform="translate(-265.781 -124.192)" fill="#ffc2b0"/>
          <path id="Trazado_4187" data-name="Trazado 4187" d="M381.54,196.112l-6,6.512a3.959,3.959,0,0,0-1.019,3.131l4.124,35.662a3.88,3.88,0,0,1-.772,2.8l-12.907,16.884a1.165,1.165,0,0,1-2.035-.354l-7.027-22.116a3.888,3.888,0,0,1,.072-2.56l12.361-32.391a3.95,3.95,0,0,0,.175-2.222l-1.809-8.587Z" transform="translate(-269.214 -111.858)" fill="#fff"/>
          <path id="Trazado_4188" data-name="Trazado 4188" d="M378.249,211.464a24.043,24.043,0,0,1-5.955-.767,21.69,21.69,0,0,1-11.429-7c-2.812-3.451-3.84-7.384-2.889-11.079,1.919-7.44,11.45-11.438,21.27-8.911s16.234,10.638,14.318,18.081c-.951,3.691-3.749,6.642-7.88,8.3A19.906,19.906,0,0,1,378.249,211.464Zm-4.971-25.411c-6.055,0-11.116,2.816-12.282,7.342-.7,2.709.114,5.668,2.285,8.33a19.767,19.767,0,0,0,21.24,5.472c3.187-1.282,5.325-3.479,6.024-6.19h0c1.49-5.777-3.928-12.184-12.077-14.283A20.723,20.723,0,0,0,373.279,186.054Z" transform="translate(-266.673 -125.077)" fill="#fff"/>
          <path id="Trazado_4189" data-name="Trazado 4189" d="M362.453,186.611s.282,1.308-.282,11.639c-.177,3.248,11.193,6.283,14.133,3.343s1.765-6,2.471-17.052S362.453,186.611,362.453,186.611Z" transform="translate(-260.632 -128.852)" fill="#ffc2b0"/>
          <path id="Trazado_4190" data-name="Trazado 4190" d="M378.776,182.012s-2.8,10.249-16.607,14.182l.21-9.316Z" transform="translate(-260.632 -126.323)" fill="#ea9c92"/>
          <circle id="Elipse_915" data-name="Elipse 915" cx="25.096" cy="25.096" r="25.096" transform="translate(72.04 53.994) rotate(-75.592)" fill="#ffc2b0"/>
          <path id="Trazado_4191" data-name="Trazado 4191" d="M382.822,177.395s-13.819,5.917-23.387,5.987-7.458-7.946-7.458-7.946l28.4-4.1Z" transform="translate(-274.466 -140.542)" fill="#ea9c92"/>
          <path id="Trazado_4192" data-name="Trazado 4192" d="M362.814,196.539s12.037-5.111,22.6-2.98a11.079,11.079,0,0,1,6.381,3.791,3.766,3.766,0,0,0,1.93,1.4c1.872.422,4.938-7.346,8.577-7.524s6.069,2.4,3.085,7.179-1.977,10.123-.6,10.89,18.372-11.1,5.526-36.543-47.914-11.035-52.99-5.878c0,0-5.346,4.661-9.694.513C347.622,167.386,342.747,203.9,362.814,196.539Z" transform="translate(-280.695 -158.126)" fill="#353535"/>
          <path id="Trazado_4193" data-name="Trazado 4193" d="M397.6,225.943v19.092a7.773,7.773,0,0,1-2.539,5.747l-39.22,35.758,4.458,6.815,54.034-35.431a10.525,10.525,0,0,0,4.288-7.421l3.7-35.429Z" transform="translate(-269.051 -82.303)" fill="#ffc2b0"/>
          <path id="Trazado_4194" data-name="Trazado 4194" d="M390.921,193.5s11.9,17.894,16.332,65c0,0-20.326,6.572-31.862,2.842S390.921,193.5,390.921,193.5Z" transform="translate(-246.837 -111.028)" fill="#08c9f1"/>
          <path id="Trazado_4195" data-name="Trazado 4195" d="M375.637,203.2s-4.658,24.933-4.922,36.648a7.48,7.48,0,0,0,4.922,7.223h0Z" transform="translate(-249.256 -98.107)" fill="#11b3c9"/>
        </g>
        <g id="Grupo_1770" data-name="Grupo 1770" transform="translate(6.269 189.982)">
          <path id="Trazado_4196" data-name="Trazado 4196" d="M435,275.878l-8.668-1.145-55.957-32.307a7.781,7.781,0,0,0-7,.291L323.726,265.6l-5.241-.692v5.218h0a2.043,2.043,0,0,0,1.2,1.84l63.416,36.611a7.773,7.773,0,0,0,7-.289l43.181-24.923A2.827,2.827,0,0,0,435,281.012h0Z" transform="translate(-318.482 -236.797)" fill="#5793ce"/>
          <path id="Trazado_4197" data-name="Trazado 4197" d="M392.957,248.929l-3.975-2.294H345.273l-21.547,12.431-5.241-.692v5.218h0a2.043,2.043,0,0,0,1.2,1.84l63.416,36.611a6.562,6.562,0,0,0,3.611.678Z" transform="translate(-318.482 -230.262)" fill="#396caa"/>
          <path id="Trazado_4198" data-name="Trazado 4198" d="M320.809,251.978l-2.324-.308v5.218h0a2.043,2.043,0,0,0,1.2,1.84l1.117.643Z" transform="translate(-318.482 -223.559)" fill="#5793ce"/>
          <path id="Trazado_4199" data-name="Trazado 4199" d="M346.477,275.81a8.13,8.13,0,0,0,5.948-.371v-8.878h-5.948Z" transform="translate(-281.212 -203.732)" fill="#5793ce"/>
          <path id="Trazado_4200" data-name="Trazado 4200" d="M383.11,306.179l-63.416-36.613c-1.793-1.035-1.569-2.844.5-4.04L363.379,240.6a7.773,7.773,0,0,1,7-.289l63.416,36.613c1.793,1.035,1.569,2.844-.5,4.04l-43.181,24.921A7.781,7.781,0,0,1,383.11,306.179Z" transform="translate(-318.484 -239.613)" fill="#fff"/>
          <path id="Trazado_4201" data-name="Trazado 4201" d="M376.431,292.988,323.7,262.546c-1.49-.863-1.3-2.366.42-3.36l23.14-13.014a6.474,6.474,0,0,1,5.819-.24l52.728,30.444c1.492.86,1.306,2.364-.417,3.36l-23.14,13.012A6.459,6.459,0,0,1,376.431,292.988Z" transform="translate(-312.877 -231.972)" fill="#d4ecff"/>
        </g>
        <path id="Trazado_4202" data-name="Trazado 4202" d="M339.372,240.777l-.657,4.376A32.345,32.345,0,0,0,339,256.374l.779,3.854a5.425,5.425,0,0,0,4.346,4.26h0a2.992,2.992,0,0,0,3.509-2.609l1.047-9.354s2.392,3.136,3.548,3.136-1.294-9.368-3.908-14.67S339.372,240.777,339.372,240.777Z" transform="translate(-285.755 -51.008)" fill="#ffc2b0"/>
        <path id="Trazado_4203" data-name="Trazado 4203" d="M362.642,217.235,355.837,230.7a26.423,26.423,0,0,0-2.784,10.223L350.1,286.99l-8.951-.215-4.064-51.731a18.882,18.882,0,0,1,.231-4.782l4.642-26.234Z" transform="translate(-287.53 -97.007)" fill="#ffc2b0"/>
        <g id="Grupo_1771" data-name="Grupo 1771" transform="translate(0 162.552)">
          <path id="Trazado_4204" data-name="Trazado 4204" d="M383.912,325.36l-5.318-6.941-55.918-32.375a7.78,7.78,0,0,1-3.241-6.211l.049-45.781-3.215-4.2,3.022-1.751,0,0a2.043,2.043,0,0,1,2.194.126l63.369,36.69a7.778,7.778,0,0,1,3.241,6.211L388.045,321a2.828,2.828,0,0,1-1.187,2.658h0Z" transform="translate(-315.164 -227.847)" fill="#173d7a"/>
          <path id="Trazado_4205" data-name="Trazado 4205" d="M345.242,299.108l-3.973-2.3L319.461,258.93l.023-24.877-3.215-4.2,3.022-1.751,0,0a2.043,2.043,0,0,1,2.194.126l63.369,36.69a6.561,6.561,0,0,1,2.39,2.793Z" transform="translate(-315.164 -227.847)" fill="#396caa"/>
          <path id="Trazado_4206" data-name="Trazado 4206" d="M317.7,231.719l-1.427-1.863,3.022-1.751,0,0a2.043,2.043,0,0,1,2.194.126l1.117.648Z" transform="translate(-315.164 -227.847)" fill="#5793ce"/>
          <path id="Trazado_4207" data-name="Trazado 4207" d="M349.653,243.925a8.123,8.123,0,0,1,2.649,5.339l-6.192,3.574-2.968-5.153Z" transform="translate(-279.385 -206.441)" fill="#274f89"/>
          <path id="Trazado_4208" data-name="Trazado 4208" d="M382.47,265.678,319.1,228.987c-1.793-1.038-3.248.061-3.25,2.453l-.054,49.856a7.774,7.774,0,0,0,3.241,6.211l63.372,36.69c1.791,1.037,3.248-.061,3.25-2.453l.054-49.856A7.781,7.781,0,0,0,382.47,265.678Z" transform="translate(-315.795 -226.85)" fill="#5793ce"/>
        </g>
        <path id="Trazado_4209" data-name="Trazado 4209" d="M369.691,252.542l-1.017,2.1a14.1,14.1,0,0,1-5.3,5.873l-6.295,3.88a6.268,6.268,0,0,1-6.426.149c-.072-.042-.142-.086-.214-.131a3.786,3.786,0,0,1-.534-5.817l6.577-6.764s-3.7,2.833-4.73,1.69c-.76-.835,3.583-4.912,6.917-5.045s6.561-2.754,6.561-2.754Z" transform="translate(-271.856 -41.489)" fill="#ffc2b0"/>
        <path id="Trazado_4210" data-name="Trazado 4210" d="M369.932,183.221s-24.114,26.236-33.844,50.308c0,0,8.246,14.856,28.432,20.685S369.932,183.221,369.932,183.221Z" transform="translate(-288.776 -124.714)" fill="#08c9f1"/>
        <path id="Trazado_4211" data-name="Trazado 4211" d="M349.363,234.565l3.91-37.756-9.212,35.373A52.078,52.078,0,0,0,349.363,234.565Z" transform="translate(-278.16 -106.622)" fill="#11b3c9"/>
        <path id="Trazado_4212" data-name="Trazado 4212" d="M362.05,181.967l-6.479-1.781s3.094,4.866,7.61,6.106,5.22-2.581,5.22-2.581Z" transform="translate(-262.835 -128.755)" fill="#fff"/>
      </g>
      <circle id="Elipse_916" data-name="Elipse 916" cx="3.609" cy="3.609" r="3.609" transform="translate(126.609 39.23)" fill="#fff"/>
    </g>
    <g id="Grupo_1776" data-name="Grupo 1776" transform="translate(179.987 503.129)">
      <g id="Grupo_1774" data-name="Grupo 1774">
        <path id="Trazado_4213" data-name="Trazado 4213" d="M273.3,310.357c-20.633,11.914-54.088,11.914-74.721,0s-20.633-31.228,0-43.139,54.085-11.914,74.719,0S293.937,298.445,273.3,310.357Z" transform="translate(-175.833 -211.118)" fill="#173d7a" opacity="0.5"/>
        <path id="Trazado_4214" data-name="Trazado 4214" d="M300.2,283.323V266.445h-3.187c-2.861-4.926-7.624-9.564-14.42-13.488-23.473-13.553-61.532-13.553-85.008,0-6.794,3.924-11.557,8.561-14.418,13.488h-3.182v16.787h0c-.042,8.911,5.819,17.831,17.6,24.63,23.476,13.555,61.534,13.555,85.008,0C294.336,301.086,300.2,292.2,300.2,283.323Z" transform="translate(-179.985 -231.741)" fill="#11b3c9"/>
        <ellipse id="Elipse_917" data-name="Elipse 917" cx="60.109" cy="34.704" rx="60.109" ry="34.704" fill="#08c9f1"/>
        <path id="Trazado_4215" data-name="Trazado 4215" d="M282.566,276.847c-23.473,13.553-61.532,13.553-85.007,0-11.249-6.5-17.048-14.926-17.514-23.436-.508,9.247,5.29,18.589,17.514,25.644,23.475,13.555,61.534,13.555,85.007,0,12.224-7.055,18.02-16.395,17.514-25.641C299.614,261.921,293.815,270.351,282.566,276.847Z" transform="translate(-179.952 -217.604)" fill="#fff"/>
      </g>
      <g id="Grupo_1775" data-name="Grupo 1775" transform="translate(29.553 18.251)">
        <path id="Trazado_4216" data-name="Trazado 4216" d="M194.248,273.824a2.7,2.7,0,0,1-1.585-2.215l.061-22.61c0-1.723,2.432-3.12,5.418-3.117s5.4,1.4,5.4,3.129l-.049,18.75,54.414-6.663c2.926-.359,5.8.72,6.416,2.406s-1.247,3.346-4.169,3.7L199.2,274.67a8.57,8.57,0,0,1-4.532-.629C194.519,273.973,194.379,273.9,194.248,273.824Z" transform="translate(-192.663 -245.881)" fill="#fff"/>
      </g>
    </g>
    <g id="Grupo_1779" data-name="Grupo 1779" transform="translate(509.173 149.037)">
      <g id="Grupo_1777" data-name="Grupo 1777">
        <path id="Trazado_4217" data-name="Trazado 4217" d="M438.168,138.8,348.446,87.016a5.438,5.438,0,0,0-5.094-.371l.019-.058-10.7,5.027s4.017,1.4,6.374,2.234L326.1,159.165c-1.051,5.313,1.324,11.487,5.313,13.788l85.756,49.5-1.52,7.664,10.8-5.062-.049-.019c1.835-.9,3.292-2.893,3.859-5.752l13.219-66.694C444.533,147.275,442.155,141.1,438.168,138.8Z" transform="translate(-314.961 -86.178)" fill="#11b3c9"/>
        <path id="Trazado_4218" data-name="Trazado 4218" d="M416.462,226.943l-89.722-51.784c-3.987-2.3-6.365-8.475-5.311-13.788l13.219-66.692c1.054-5.316,5.141-7.759,9.128-5.458L433.5,141.008c3.987,2.3,6.365,8.475,5.311,13.788L425.59,221.488C424.536,226.8,420.449,229.245,416.462,226.943Z" transform="translate(-321.18 -83.277)" fill="#08c9f1"/>
        <path id="Trazado_4219" data-name="Trazado 4219" d="M424.832,140.656,335.11,88.872a5.367,5.367,0,0,0-5.889.049,5.686,5.686,0,0,1,3.849.751l89.722,51.786c3.987,2.3,6.365,8.475,5.311,13.788l-13.219,66.692a8.224,8.224,0,0,1-3.238,5.407c2.49-.415,4.572-2.642,5.279-6.206l13.219-66.694C431.2,149.131,428.819,142.957,424.832,140.656Z" transform="translate(-310.473 -83.727)" fill="#fff"/>
      </g>
      <g id="Grupo_1778" data-name="Grupo 1778" transform="translate(31.476 57.591)">
        <path id="Trazado_4220" data-name="Trazado 4220" d="M346.945,122.189c-.765,3.859-4.094,5.423-7.437,3.493a10.52,10.52,0,0,1-4.67-10.48c.765-3.861,4.1-5.425,7.44-3.495A10.522,10.522,0,0,1,346.945,122.189Z" transform="translate(-334.68 -110.879)" fill="#fff"/>
        <ellipse id="Elipse_918" data-name="Elipse 918" cx="5.809" cy="8.115" rx="5.809" ry="8.115" transform="matrix(0.922, -0.387, 0.387, 0.922, 16.051, 13.169)" fill="#fff"/>
        <path id="Trazado_4221" data-name="Trazado 4221" d="M362.677,131.269c-.765,3.859-4.094,5.423-7.437,3.493a10.52,10.52,0,0,1-4.67-10.48c.765-3.861,4.1-5.425,7.44-3.495A10.522,10.522,0,0,1,362.677,131.269Z" transform="translate(-313.734 -98.79)" fill="#fff"/>
      </g>
    </g>
    <g id="Grupo_1782" data-name="Grupo 1782" transform="translate(859.072 38.967)">
      <g id="Grupo_1780" data-name="Grupo 1780" transform="translate(0)">
        <path id="Trazado_4222" data-name="Trazado 4222" d="M588.244,91.591,498.522,39.8a5.438,5.438,0,0,0-5.094-.371l.019-.058L482.752,44.4s4.015,1.4,6.372,2.234l-12.947,65.318c-1.054,5.313,1.324,11.487,5.311,13.788l85.756,49.5-1.518,7.664,10.8-5.062-.052-.016c1.835-.907,3.292-2.893,3.859-5.754l13.222-66.692C594.609,100.064,592.231,93.892,588.244,91.591Z" transform="translate(-465.038 -38.967)" fill="#5793ce"/>
        <path id="Trazado_4223" data-name="Trazado 4223" d="M566.542,179.734l-89.724-51.784c-3.987-2.3-6.365-8.475-5.311-13.791l13.222-66.692c1.051-5.316,5.139-7.757,9.125-5.456L583.575,93.8c3.987,2.3,6.365,8.475,5.311,13.788l-13.219,66.694C574.613,179.591,570.529,182.035,566.542,179.734Z" transform="translate(-471.257 -36.065)" fill="#d4ecff"/>
        <path id="Trazado_4224" data-name="Trazado 4224" d="M574.909,93.445,485.187,41.66a5.363,5.363,0,0,0-5.889.051,5.686,5.686,0,0,1,3.849.751l89.722,51.784c3.987,2.3,6.365,8.475,5.311,13.788l-13.219,66.694a8.235,8.235,0,0,1-3.238,5.407c2.49-.417,4.572-2.644,5.278-6.209l13.219-66.692C581.274,101.919,578.9,95.746,574.909,93.445Z" transform="translate(-460.55 -36.516)" fill="#fff"/>
      </g>
      <g id="Grupo_1781" data-name="Grupo 1781" transform="translate(31.476 57.593)">
        <path id="Trazado_4225" data-name="Trazado 4225" d="M497.025,74.977c-.767,3.859-4.1,5.423-7.44,3.495a10.525,10.525,0,0,1-4.67-10.482c.767-3.859,4.1-5.423,7.44-3.495A10.525,10.525,0,0,1,497.025,74.977Z" transform="translate(-484.757 -63.669)" fill="#fff"/>
        <path id="Trazado_4226" data-name="Trazado 4226" d="M504.891,79.517c-.767,3.859-4.1,5.423-7.44,3.495a10.525,10.525,0,0,1-4.67-10.482c.767-3.859,4.1-5.423,7.44-3.495A10.525,10.525,0,0,1,504.891,79.517Z" transform="translate(-474.284 -57.624)" fill="#fff"/>
        <path id="Trazado_4227" data-name="Trazado 4227" d="M512.754,84.057c-.765,3.859-4.094,5.423-7.437,3.495a10.525,10.525,0,0,1-4.67-10.482c.767-3.859,4.1-5.423,7.44-3.495A10.519,10.519,0,0,1,512.754,84.057Z" transform="translate(-463.811 -51.579)" fill="#fff"/>
      </g>
    </g>
  </g>
</svg>
